# xmcd CD database file
#
# Track frame offsets:
#	150
#	11189
#	22782
#	33226
#	44444
#
# Disc length: 820 seconds
#
# Revision: 0
# Processed by: cddbd v1.5.1PL2 Copyright (c) Steve Scherf et al.
# Submitted via: CDex 1.60beta1
#
DISCID=31033205
DTITLE=Rio Dame Daro - " Caminho do mar "
DYEAR=2005
DGENRE=Latin
TTITLE0=ソ・ダンソ・サンバ
TTITLE1=おいしい水
TTITLE2=サマー・サンバ
TTITLE3=静かな夜(コルコヴァード)
TTITLE4=デザフィナード
EXTD=YEAR: 2005
EXTT0=
EXTT1=
EXTT2=
EXTT3=
EXTT4=
PLAYORDER=
